<svg version="1.1" xmlns="http://www.w3.org/2000/svg" width="80" height="39.622" viewBox="0 0 80 39.622"><path d="m29.34 4.862 0.529 0.262q0.562 0.278 1.124 0.561c0.997 0.502 1.998 0.994 2.998 1.487l0.61 0.302a199.2 199.2 0 0 0 5.306 2.512 490.4 490.4 0 0 1 7.521 3.542q0.567 0.273 1.135 0.544 0.788 0.377 1.575 0.758l0.48 0.228c1.089 0.531 1.089 0.531 1.37 1.094 -0.247 0.594 -0.247 0.594 -0.642 1.345l-0.438 0.84 -0.481 0.906 -0.49 0.933a419.2 419.2 0 0 1 -3.746 6.948 361.6 361.6 0 0 0 -1.646 3.03l-0.447 0.83 -0.85 1.585q-0.378 0.703 -0.767 1.401a23.2 23.2 0 0 0 -0.579 1.108c-0.224 0.419 -0.224 0.419 -0.764 1.009 -0.769 0.116 -1.325 0.146 -2.082 0.094l-0.57 -0.021a55.2 55.2 0 0 1 -1.386 -0.074c0.154 -1.102 0.577 -1.982 1.1 -2.948l0.26 -0.49a363.2 363.2 0 0 1 0.847 -1.578l0.586 -1.094a294.4 294.4 0 0 1 3.95 -7.116 83.2 83.2 0 0 0 2.847 -5.447l-0.663 -0.208a20.8 20.8 0 0 1 -2.351 -1.003l-0.875 -0.426 -0.462 -0.226q-1.234 -0.604 -2.47 -1.202l-0.512 -0.249a301.6 301.6 0 0 0 -4.954 -2.332 1213.6 1213.6 0 0 1 -8.344 -3.896l-0.586 -0.276q-1.631 -0.768 -3.262 -1.538v-0.758a218.4 218.4 0 0 1 1.798 -0.631l0.509 -0.182 0.503 -0.172 0.457 -0.16c1.494 -0.334 2.54 0.029 3.865 0.707" fill="#8A8A8A"/><path d="M21.451 7.066c0.706 0.274 1.383 0.601 2.063 0.932l0.604 0.289q0.978 0.468 1.954 0.941l1.362 0.653a1328.8 1328.8 0 0 1 4.111 1.982l0.618 0.298a2272.8 2272.8 0 0 1 4.905 2.378 607.2 607.2 0 0 0 7.6 3.633c-0.341 1.114 -0.78 2.098 -1.33 3.123l-0.245 0.457q-0.394 0.734 -0.79 1.467l-0.548 1.021a1042.4 1042.4 0 0 1 -4.007 7.382 596.8 596.8 0 0 0 -2.416 4.469h-4.542c0.217 -1.085 0.42 -1.669 0.934 -2.607l0.43 -0.791 0.466 -0.844 0.719 -1.321 0.743 -1.36c0.764 -1.396 1.519 -2.797 2.274 -4.197a413.6 413.6 0 0 1 2.761 -5.031l-0.65 -0.202c-0.901 -0.316 -1.729 -0.699 -2.586 -1.121l-0.495 -0.242q-0.527 -0.258 -1.053 -0.517a758.4 758.4 0 0 0 -2.807 -1.371l-0.574 -0.279c-2.634 -1.279 -5.297 -2.5 -7.957 -3.727a560.8 560.8 0 0 1 -5.582 -2.636c0.192 -0.898 0.452 -1.3 1.12 -1.94l0.472 -0.461c0.864 -0.759 1.348 -0.633 2.446 -0.375" fill="#969696"/><path d="M16.151 10.852c1.127 0.142 1.999 0.431 3.014 0.934l0.876 0.43 0.462 0.23q1.226 0.607 2.455 1.206l0.51 0.25a243.2 243.2 0 0 0 5.191 2.439 318.4 318.4 0 0 1 6.341 2.997l0.641 0.307 0.577 0.286 0.5 0.245c0.381 0.266 0.381 0.266 0.634 1.023a20 20 0 0 1 -0.854 1.746l-0.28 0.527a260.8 260.8 0 0 1 -0.917 1.701l-0.625 1.167a330.4 330.4 0 0 1 -4.89 8.79 20.8 20.8 0 0 0 -0.51 0.959h-4.795a8.8 8.8 0 0 1 0.833 -2.182l0.366 -0.698 0.395 -0.747 0.405 -0.772a331.2 331.2 0 0 1 3.343 -6.175l0.362 -0.658 0.318 -0.573a18.4 18.4 0 0 0 0.792 -1.822l-0.524 -0.241a596 596 0 0 1 -10.801 -5.09l-0.51 -0.247a769.6 769.6 0 0 1 -3.056 -1.489l-0.842 -0.38c-0.672 -0.377 -0.672 -0.377 -0.924 -1.134 0.306 -0.737 0.306 -0.737 0.742 -1.562l0.433 -0.831z" fill="#A0A0A0"/><path d="M14.385 15.647c1.12 0.351 2.163 0.785 3.225 1.285l0.49 0.23q0.786 0.37 1.57 0.742l1.084 0.513 1.639 0.776a278.4 278.4 0 0 0 3.397 1.578l0.814 0.377q0.748 0.346 1.5 0.684l0.666 0.311 0.577 0.263c0.433 0.309 0.433 0.309 0.666 0.758 0.028 0.82 -0.286 1.302 -0.678 2.018l-0.474 0.875 -0.518 0.932 -0.518 0.95a353.6 353.6 0 0 1 -4.607 8.151h-5.047c0.374 -1.12 0.718 -1.977 1.274 -2.991l0.457 -0.841 0.478 -0.868a162.4 162.4 0 0 0 3.344 -6.404l-3.97 -1.913a676 676 0 0 0 -4.571 -2.186l-0.803 -0.381q-0.754 -0.358 -1.511 -0.711l-0.684 -0.324 -0.598 -0.281c-0.482 -0.26 -0.482 -0.26 -0.986 -0.765l0.462 -0.203 0.611 -0.27 0.603 -0.266 0.595 -0.27 0.56 -0.245c0.641 -0.371 0.738 -0.835 0.954 -1.522" fill="#A8A8A8"/><path d="M9.91 19.238c0.802 0.226 1.497 0.545 2.246 0.911l0.448 0.218q0.718 0.351 1.434 0.705l1.483 0.725 0.988 0.482a170.4 170.4 0 0 0 2.95 1.407l0.674 0.314q0.612 0.283 1.225 0.562c1.328 0.618 1.328 0.618 1.608 1.178 -0.21 0.494 -0.21 0.494 -0.55 1.104l-0.378 0.684 -0.414 0.735 -0.415 0.748q-0.425 0.766 -0.853 1.529a367.2 367.2 0 0 0 -1.175 2.12l-0.68 1.233 -0.322 0.584c-0.737 1.327 -0.737 1.327 -1.018 1.609 -0.614 0.032 -1.217 0.047 -1.83 0.047l-0.511 0.01c-1.017 0.002 -1.791 -0.113 -2.706 -0.562l4.038 -8.076 -0.586 -0.281 -3.127 -1.503a636 636 0 0 1 -2.255 -1.088 132 132 0 0 0 -1.623 -0.771l-0.692 -0.329 -0.603 -0.282c-0.451 -0.288 -0.451 -0.288 -0.703 -1.046 0.632 -1.158 1.905 -3.118 3.348 -2.97" fill="#ACACAC"/><path d="M54.258 15.394c1.35 0.082 2.09 0.882 3.028 1.766a26.4 26.4 0 0 1 -1.22 2.681l-0.431 0.833 -0.462 0.887 -0.238 0.458c-2.472 4.752 -5.067 9.429 -7.743 14.07h-4.038c0.362 -1.087 0.686 -1.919 1.22 -2.902l0.431 -0.796 0.462 -0.845 0.479 -0.883q0.721 -1.326 1.445 -2.65l0.791 -1.454q0.55 -1.011 1.103 -2.022 1.019 -1.863 2.025 -3.734l0.45 -0.837 0.86 -1.604 0.394 -0.731 0.346 -0.646c0.33 -0.566 0.692 -1.077 1.096 -1.592" fill="#7A7A7A"/><path d="m60 17.85 0.82 0.004 0.82 -0.004c0.694 0.067 0.694 0.067 1.198 0.572a458.4 458.4 0 0 1 -4.349 8.144 559.2 559.2 0 0 0 -2.163 3.987l-0.244 0.454 -1.182 2.206 -0.431 0.803 -0.382 0.714c-0.334 0.599 -0.334 0.599 -0.839 1.357a15.2 15.2 0 0 1 -1.924 0.047l-0.54 -0.01q-0.66 -0.014 -1.321 -0.037a16 16 0 0 1 1.266 -2.994l0.462 -0.858 0.495 -0.911 0.51 -0.945q0.522 -0.966 1.045 -1.93 0.717 -1.322 1.429 -2.648c4.222 -7.845 4.222 -7.845 5.328 -7.951" fill="#767676"/><path d="M6.31 23.47c1.65 0.518 3.185 1.254 4.742 1.997q0.513 0.244 1.029 0.483a140.8 140.8 0 0 1 1.49 0.704l0.896 0.423c0.676 0.431 0.676 0.431 0.945 0.894 -0.038 1.239 -0.869 2.35 -1.452 3.412a96.8 96.8 0 0 0 -0.742 1.39l-0.477 0.881 -0.438 0.81c-0.442 0.615 -0.442 0.615 -0.971 0.847 -1.015 0.042 -1.764 -0.874 -2.5 -1.494l-0.646 -0.489c-0.362 -0.521 -0.362 -0.521 -0.331 -1.388 0.188 -0.763 0.401 -1.447 0.726 -2.161l-0.678 -0.205c-0.787 -0.282 -1.418 -0.572 -2.098 -1.057 -0.55 -1.647 -0.23 -3.177 0.252 -4.795z" fill="#AAAAAA"/><path d="M64.606 19.18c1.296 0.192 1.824 0.65 2.776 1.514a15.44 15.44 0 0 1 -1.22 2.902l-0.431 0.797 -0.462 0.844 -0.474 0.874 -0.972 1.785a1232.8 1232.8 0 0 0 -1.35 2.478c-2.119 3.898 -2.119 3.898 -3.166 5.715h-3.534c0.21 -1.052 0.382 -1.596 0.879 -2.497l0.395 -0.722 0.429 -0.772 0.898 -1.635 0.466 -0.847a457.6 457.6 0 0 0 1.766 -3.257c1.3 -2.414 2.618 -4.812 3.998 -7.18" fill="#747474"/><path d="M69.463 23.407c0.999 0.066 1.39 0.284 2.208 0.82 -1.38 2.848 -2.89 5.62 -4.414 8.393q-0.95 1.733 -1.894 3.469h-3.281c0.212 -1.062 0.394 -1.62 0.897 -2.532l0.403 -0.738 0.434 -0.782 0.442 -0.806q0.452 -0.824 0.908 -1.647 0.64 -1.161 1.274 -2.324l0.751 -1.374 0.356 -0.651 0.326 -0.594 0.286 -0.52c0.408 -0.698 0.409 -0.642 1.304 -0.711" fill="#727272"/><path d="M48.246 8.148c1.871 1.265 3.021 3.03 3.489 5.228 -0.885 0.295 -1.13 0.142 -1.938 -0.25l-0.47 -0.238 -0.495 -0.242a254.4 254.4 0 0 1 -1.574 -0.782l-1.535 -0.758 -1.022 -0.504a224.8 224.8 0 0 0 -5.33 -2.524v-0.505c2.942 -1.441 6.122 -1.05 8.878 0.577" fill="#7D7D7D"/><path d="M73.438 25.994c0.458 0.016 0.458 0.016 1.01 0.252 0.692 1.217 0.826 1.937 0.505 3.281 -0.458 1.06 -1.025 2.062 -1.577 3.076l-0.438 0.835 -0.433 0.8 -0.391 0.728c-0.498 0.698 -0.934 1.003 -1.702 1.375 -0.62 0.074 -0.62 0.074 -1.214 0.047l-0.604 -0.021 -0.453 -0.026c0.352 -1.164 0.834 -2.209 1.41 -3.274l0.264 -0.494 0.551 -1.026q0.422 -0.782 0.839 -1.563l0.538 -1.002 0.251 -0.468a53.6 53.6 0 0 1 1.446 -2.52" fill="#6F6F6F"/><path d="M32.303 4.038c2.153 0.089 3.663 0.493 5.3 1.924 0.505 0.599 0.505 0.599 0.505 1.104 -1.404 -0.142 -2.505 -0.665 -3.754 -1.278l-0.599 -0.289q-0.726 -0.351 -1.45 -0.705z" fill="#787878"/></svg>